<svg xmlns="http://www.w3.org/2000/svg" width="26.002" height="26.002" viewBox="0 0 26.002 26.002">
  <path id="linkedin" d="M23.65,0H2.352A2.352,2.352,0,0,0,0,2.352v21.3A2.352,2.352,0,0,0,2.352,26h21.3A2.352,2.352,0,0,0,26,23.65V2.352A2.352,2.352,0,0,0,23.65,0ZM8.046,22.452a.684.684,0,0,1-.685.685H4.448a.684.684,0,0,1-.685-.685V10.238a.684.684,0,0,1,.685-.685H7.362a.684.684,0,0,1,.685.685ZM5.9,8.4A2.768,2.768,0,1,1,8.673,5.634,2.768,2.768,0,0,1,5.9,8.4ZM23.274,22.507a.629.629,0,0,1-.629.629H19.517a.629.629,0,0,1-.629-.629V16.778c0-.855.251-3.745-2.234-3.745-1.927,0-2.318,1.978-2.4,2.866v6.608a.629.629,0,0,1-.629.629H10.6a.629.629,0,0,1-.629-.629V10.183a.629.629,0,0,1,.629-.629h3.024a.629.629,0,0,1,.629.629v1.066c.715-1.072,1.776-1.9,4.037-1.9,5.007,0,4.978,4.677,4.978,7.247v5.912Z" fill="#d90b1c"/>
</svg>
