<svg xmlns="http://www.w3.org/2000/svg" width="26" height="26" viewBox="0 0 26 26">
  <path id="whatsapp" d="M22.462,3.778a12.958,12.958,0,0,0-22.1,9.1,12.813,12.813,0,0,0,1.728,6.441L.25,26l6.863-1.792A12.981,12.981,0,0,0,13.3,25.777H13.3A12.933,12.933,0,0,0,26.25,12.893a12.773,12.773,0,0,0-3.788-9.115ZM13.3,23.6h0a10.786,10.786,0,0,1-5.476-1.493l-.393-.232L3.358,22.939l1.087-3.952-.256-.405A10.7,10.7,0,0,1,13.309,2.176a10.712,10.712,0,1,1,0,21.425Zm5.9-8.02c-.323-.161-1.914-.94-2.21-1.047s-.512-.161-.728.161-.836,1.047-1.024,1.262-.377.242-.7.081a8.844,8.844,0,0,1-2.6-1.6,9.717,9.717,0,0,1-1.8-2.23c-.188-.322,0-.48.142-.657a9.108,9.108,0,0,0,.809-1.1.59.59,0,0,0-.027-.564c-.081-.161-.728-1.746-1-2.39-.263-.627-.529-.543-.728-.553s-.4-.011-.62-.011a1.191,1.191,0,0,0-.863.4,3.6,3.6,0,0,0-1.132,2.686,6.247,6.247,0,0,0,1.321,3.33,14.391,14.391,0,0,0,5.526,4.861,18.572,18.572,0,0,0,1.844.678,4.455,4.455,0,0,0,2.037.128,3.332,3.332,0,0,0,2.183-1.531,2.678,2.678,0,0,0,.188-1.531c-.081-.134-.3-.215-.62-.376Zm0,0" transform="translate(-0.25)" fill="#d90b1c" fill-rule="evenodd"/>
</svg>
